<svg width="54" height="49" viewBox="0 0 54 49" fill="none" xmlns="http://www.w3.org/2000/svg">
<path d="M24.8056 5.49617C25.637 1.72062 29.3716 -0.666109 33.1471 0.16526L48.2054 3.48106C51.9809 4.31243 54.3677 8.04707 53.5363 11.8226L47.1503 40.8237C46.3189 44.5992 42.5843 46.986 38.8087 46.1546L23.7505 42.8388C19.9749 42.0074 17.5882 38.2728 18.4196 34.4972L24.8056 5.49617Z" fill="url(#paint0_linear_207_39)"/>
<path fill-rule="evenodd" clip-rule="evenodd" d="M16.5498 18.2264C12.5078 12.5865 11.3396 18.9377 11.2081 24.1842C0.917717 20.1846 1.73625 24.3016 3.54497 26.9952C-3.65069 29.1306 3.51293 32.6795 8.61082 34.4153C0.635836 41.8714 4.68251 42.9185 7.88436 42.4643C6.64983 50.0211 13.2453 44.7651 16.9952 40.9036C17.1372 41.1388 17.2768 41.3552 17.4083 41.5472C25.9155 51.3193 27.1186 47.023 26.6568 43.6533C34.2958 44.9382 28.8592 38.1478 25.0052 34.4045C37.0611 30.1021 33.5191 27.4232 30.2267 26.6196C34.0393 20.2915 26.6557 22.3334 21.7168 24.455C22.1054 13.5273 18.4977 15.6432 16.5498 18.2264ZM17.504 32.3321C17.4998 32.3141 17.4956 32.296 17.4914 32.2779C17.4826 32.2776 17.4737 32.2772 17.4649 32.2767C17.4779 32.2952 17.491 32.3137 17.504 32.3321Z" fill="#F5A1A1"/>
<path fill-rule="evenodd" clip-rule="evenodd" d="M16.5266 20.8357C13.2533 16.2683 12.3072 21.4117 12.2007 25.6605C3.86713 22.4215 4.53002 25.7556 5.9948 27.937C0.167456 29.6663 5.96882 32.5404 10.0973 33.9461C3.6388 39.9844 6.91598 40.8324 9.50897 40.4645C8.5092 46.5844 13.8504 42.3279 16.8873 39.2007C17.0023 39.3912 17.1154 39.5664 17.2219 39.722C24.1114 47.6358 25.0857 44.1565 24.7117 41.4275C30.8982 42.4681 26.4953 36.9689 23.3741 33.9374C33.1376 30.4532 30.2691 28.2837 27.6028 27.6329C30.6904 22.5081 24.7108 24.1617 20.7111 25.8799C21.0258 17.0301 18.1042 18.7437 16.5266 20.8357ZM17.2994 32.2592C17.296 32.2445 17.2926 32.2299 17.2892 32.2152C17.282 32.2149 17.2749 32.2146 17.2677 32.2142C17.2783 32.2292 17.2888 32.2442 17.2994 32.2592Z" fill="#FDBDBD"/>
<path fill-rule="evenodd" clip-rule="evenodd" d="M16.6896 23.4406C14.1924 19.9562 13.4707 23.8801 13.3895 27.1214C7.03201 24.6504 7.53772 27.1939 8.65515 28.8581C4.20964 30.1773 8.63534 32.3698 11.7848 33.4423C6.85785 38.0487 9.35791 38.6956 11.336 38.4149C10.5733 43.0836 14.648 39.8364 16.9648 37.4508C17.0525 37.5961 17.1387 37.7298 17.22 37.8484C22.4758 43.8857 23.2191 41.2314 22.9338 39.1496C27.6533 39.9434 24.2943 35.7481 21.9133 33.4355C29.3617 30.7774 27.1734 29.1223 25.1393 28.6259C27.4948 24.7163 22.9331 25.9778 19.8818 27.2886C20.1219 20.5374 17.8931 21.8447 16.6896 23.4406ZM17.2792 32.1554C17.2766 32.1442 17.274 32.1329 17.2714 32.1217C17.2659 32.1215 17.2604 32.1213 17.2549 32.121C17.263 32.1325 17.2711 32.1439 17.2792 32.1554Z" fill="#FDDEDE"/>
<defs>
<linearGradient id="paint0_linear_207_39" x1="26.7123" y1="0.417222" x2="26.782" y2="47.4125" gradientUnits="userSpaceOnUse">
<stop stop-color="#F5A1A1"/>
<stop offset="1" stop-color="#FDDEDE"/>
</linearGradient>
</defs>
</svg>
